<svg width="14" height="15" viewBox="0 0 14 15" fill="none" xmlns="http://www.w3.org/2000/svg">
<path d="M7.0013 8.08317C7.32347 8.08317 7.58464 7.822 7.58464 7.49984C7.58464 7.17767 7.32347 6.9165 7.0013 6.9165C6.67914 6.9165 6.41797 7.17767 6.41797 7.49984C6.41797 7.822 6.67914 8.08317 7.0013 8.08317Z" stroke="#09090B" stroke-width="1.16667" stroke-linecap="round" stroke-linejoin="round"/>
<path d="M7.0013 4.00016C7.32347 4.00016 7.58464 3.739 7.58464 3.41683C7.58464 3.09466 7.32347 2.8335 7.0013 2.8335C6.67914 2.8335 6.41797 3.09466 6.41797 3.41683C6.41797 3.739 6.67914 4.00016 7.0013 4.00016Z" stroke="#09090B" stroke-width="1.16667" stroke-linecap="round" stroke-linejoin="round"/>
<path d="M7.0013 12.1667C7.32347 12.1667 7.58464 11.9055 7.58464 11.5833C7.58464 11.2612 7.32347 11 7.0013 11C6.67914 11 6.41797 11.2612 6.41797 11.5833C6.41797 11.9055 6.67914 12.1667 7.0013 12.1667Z" stroke="#09090B" stroke-width="1.16667" stroke-linecap="round" stroke-linejoin="round"/>
</svg>
