<svg width="14" height="15" viewBox="0 0 14 15" fill="none" xmlns="http://www.w3.org/2000/svg">
<path d="M8.7487 1.6665H3.4987C3.18928 1.6665 2.89253 1.78942 2.67374 2.00821C2.45495 2.22701 2.33203 2.52375 2.33203 2.83317V12.1665C2.33203 12.4759 2.45495 12.7727 2.67374 12.9915C2.89253 13.2103 3.18928 13.3332 3.4987 13.3332H10.4987C10.8081 13.3332 11.1049 13.2103 11.3237 12.9915C11.5424 12.7727 11.6654 12.4759 11.6654 12.1665V4.58317L8.7487 1.6665Z" stroke="#09090B" stroke-width="1.16667" stroke-linecap="round" stroke-linejoin="round"/>
<path d="M8.16797 1.6665V3.99984C8.16797 4.30926 8.29089 4.606 8.50968 4.8248C8.72847 5.04359 9.02522 5.1665 9.33464 5.1665H11.668" stroke="#09090B" stroke-width="1.16667" stroke-linecap="round" stroke-linejoin="round"/>
</svg>
