<svg width="14" height="15" viewBox="0 0 14 15" fill="none" xmlns="http://www.w3.org/2000/svg">
<path d="M8.16797 11.0002V4.00016C8.16797 3.69074 8.04505 3.394 7.82626 3.1752C7.60747 2.95641 7.31072 2.8335 7.0013 2.8335H2.33464C2.02522 2.8335 1.72847 2.95641 1.50968 3.1752C1.29089 3.394 1.16797 3.69074 1.16797 4.00016V10.4168C1.16797 10.5715 1.22943 10.7199 1.33882 10.8293C1.44822 10.9387 1.59659 11.0002 1.7513 11.0002H2.91797" stroke="#09090B" stroke-width="1.16667" stroke-linecap="round" stroke-linejoin="round"/>
<path d="M8.75 11H5.25" stroke="#09090B" stroke-width="1.16667" stroke-linecap="round" stroke-linejoin="round"/>
<path d="M11.0846 10.9998H12.2513C12.406 10.9998 12.5544 10.9384 12.6638 10.829C12.7732 10.7196 12.8346 10.5712 12.8346 10.4165V8.28734C12.8344 8.15496 12.7891 8.02659 12.7063 7.92334L10.6763 5.38584C10.6217 5.31752 10.5525 5.26233 10.4738 5.22437C10.395 5.1864 10.3087 5.16663 10.2213 5.1665H8.16797" stroke="#09090B" stroke-width="1.16667" stroke-linecap="round" stroke-linejoin="round"/>
<path d="M9.91667 12.1668C10.561 12.1668 11.0833 11.6445 11.0833 11.0002C11.0833 10.3558 10.561 9.8335 9.91667 9.8335C9.27233 9.8335 8.75 10.3558 8.75 11.0002C8.75 11.6445 9.27233 12.1668 9.91667 12.1668Z" stroke="#09090B" stroke-width="1.16667" stroke-linecap="round" stroke-linejoin="round"/>
<path d="M4.08464 12.1668C4.72897 12.1668 5.2513 11.6445 5.2513 11.0002C5.2513 10.3558 4.72897 9.8335 4.08464 9.8335C3.4403 9.8335 2.91797 10.3558 2.91797 11.0002C2.91797 11.6445 3.4403 12.1668 4.08464 12.1668Z" stroke="#09090B" stroke-width="1.16667" stroke-linecap="round" stroke-linejoin="round"/>
</svg>
