<svg width="18" height="20" viewBox="0 0 18 20" fill="none" xmlns="http://www.w3.org/2000/svg">
<path d="M9.18236 1.6665H8.81569C8.37366 1.6665 7.94974 1.8421 7.63718 2.15466C7.32462 2.46722 7.14902 2.89114 7.14902 3.33317V3.48317C7.14872 3.77544 7.07157 4.0625 6.92531 4.31553C6.77904 4.56857 6.56881 4.7787 6.31569 4.92484L5.95736 5.13317C5.70399 5.27945 5.41659 5.35646 5.12402 5.35646C4.83146 5.35646 4.54406 5.27945 4.29069 5.13317L4.16569 5.0665C3.78325 4.84589 3.32889 4.78604 2.90236 4.90009C2.47583 5.01415 2.11198 5.29278 1.89069 5.67484L1.70736 5.9915C1.48674 6.37395 1.42689 6.82831 1.54095 7.25484C1.655 7.68136 1.93364 8.04521 2.31569 8.2665L2.44069 8.34984C2.69259 8.49526 2.90204 8.70408 3.04823 8.95553C3.19443 9.20698 3.27227 9.49231 3.27403 9.78317V10.2082C3.27519 10.5019 3.19873 10.7906 3.05239 11.0453C2.90606 11.2999 2.69503 11.5113 2.44069 11.6582L2.31569 11.7332C1.93364 11.9545 1.655 12.3183 1.54095 12.7448C1.42689 13.1714 1.48674 13.6257 1.70736 14.0082L1.89069 14.3248C2.11198 14.7069 2.47583 14.9855 2.90236 15.0996C3.32889 15.2136 3.78325 15.1538 4.16569 14.9332L4.29069 14.8665C4.54406 14.7202 4.83146 14.6432 5.12402 14.6432C5.41659 14.6432 5.70399 14.7202 5.95736 14.8665L6.31569 15.0748C6.56881 15.221 6.77904 15.4311 6.92531 15.6841C7.07157 15.9372 7.14872 16.2242 7.14902 16.5165V16.6665C7.14902 17.1085 7.32462 17.5325 7.63718 17.845C7.94974 18.1576 8.37366 18.3332 8.81569 18.3332H9.18236C9.62439 18.3332 10.0483 18.1576 10.3609 17.845C10.6734 17.5325 10.849 17.1085 10.849 16.6665V16.5165C10.8493 16.2242 10.9265 15.9372 11.0727 15.6841C11.219 15.4311 11.4292 15.221 11.6824 15.0748L12.0407 14.8665C12.2941 14.7202 12.5815 14.6432 12.874 14.6432C13.1666 14.6432 13.454 14.7202 13.7074 14.8665L13.8324 14.9332C14.2148 15.1538 14.6692 15.2136 15.0957 15.0996C15.5222 14.9855 15.8861 14.7069 16.1074 14.3248L16.2907 13.9998C16.5113 13.6174 16.5712 13.163 16.4571 12.7365C16.343 12.31 16.0644 11.9461 15.6824 11.7248L15.5574 11.6582C15.303 11.5113 15.092 11.2999 14.9457 11.0453C14.7993 10.7906 14.7229 10.5019 14.724 10.2082V9.7915C14.7229 9.49782 14.7993 9.20904 14.9457 8.95441C15.092 8.69978 15.303 8.48834 15.5574 8.3415L15.6824 8.2665C16.0644 8.04521 16.343 7.68136 16.4571 7.25484C16.5712 6.82831 16.5113 6.37395 16.2907 5.9915L16.1074 5.67484C15.8861 5.29278 15.5222 5.01415 15.0957 4.90009C14.6692 4.78604 14.2148 4.84589 13.8324 5.0665L13.7074 5.13317C13.454 5.27945 13.1666 5.35646 12.874 5.35646C12.5815 5.35646 12.2941 5.27945 12.0407 5.13317L11.6824 4.92484C11.4292 4.7787 11.219 4.56857 11.0727 4.31553C10.9265 4.0625 10.8493 3.77544 10.849 3.48317V3.33317C10.849 2.89114 10.6734 2.46722 10.3609 2.15466C10.0483 1.8421 9.62439 1.6665 9.18236 1.6665Z" stroke="black" stroke-opacity="0.35" stroke-width="1.66667" stroke-linecap="round" stroke-linejoin="round"/>
<path d="M8.99902 12.4998C10.3797 12.4998 11.499 11.3805 11.499 9.99984C11.499 8.61913 10.3797 7.49984 8.99902 7.49984C7.61831 7.49984 6.49902 8.61913 6.49902 9.99984C6.49902 11.3805 7.61831 12.4998 8.99902 12.4998Z" stroke="black" stroke-opacity="0.35" stroke-width="1.66667" stroke-linecap="round" stroke-linejoin="round"/>
</svg>
