<svg width="19" height="18" viewBox="0 0 19 18" fill="none" xmlns="http://www.w3.org/2000/svg">
<path d="M14.5013 16.5C14.5013 14.7319 13.7989 13.0362 12.5487 11.786C11.2984 10.5357 9.60275 9.83333 7.83464 9.83333M7.83464 9.83333C6.06653 9.83333 4.37083 10.5357 3.12059 11.786C1.87035 13.0362 1.16797 14.7319 1.16797 16.5M7.83464 9.83333C10.1358 9.83333 12.0013 7.96785 12.0013 5.66667C12.0013 3.36548 10.1358 1.5 7.83464 1.5C5.53345 1.5 3.66797 3.36548 3.66797 5.66667C3.66797 7.96785 5.53345 9.83333 7.83464 9.83333ZM17.8346 15.6667C17.8346 12.8583 16.168 10.25 14.5013 9C15.0492 8.58897 15.4872 8.04924 15.7768 7.42856C16.0663 6.80788 16.1984 6.12539 16.1613 5.4415C16.1242 4.75761 15.9191 4.0934 15.5642 3.50767C15.2092 2.92193 14.7154 2.43272 14.1263 2.08333" stroke="black" stroke-opacity="0.6" stroke-width="1.66667" stroke-linecap="round" stroke-linejoin="round"/>
</svg>
