<svg width="17" height="20" viewBox="0 0 17 20" fill="none" xmlns="http://www.w3.org/2000/svg">
<path d="M8.68236 1.66699H8.31569C7.87366 1.66699 7.44974 1.84259 7.13718 2.15515C6.82462 2.46771 6.64902 2.89163 6.64902 3.33366V3.48366C6.64872 3.77593 6.57157 4.06298 6.42531 4.31602C6.27904 4.56906 6.06881 4.77919 5.81569 4.92533L5.45736 5.13366C5.20399 5.27994 4.91659 5.35695 4.62402 5.35695C4.33146 5.35695 4.04406 5.27994 3.79069 5.13366L3.66569 5.06699C3.28325 4.84638 2.82889 4.78653 2.40236 4.90058C1.97583 5.01464 1.61198 5.29327 1.39069 5.67533L1.20736 5.99199C0.986744 6.37444 0.926895 6.82879 1.04095 7.25532C1.155 7.68185 1.43364 8.0457 1.81569 8.26699L1.94069 8.35033C2.19259 8.49575 2.40204 8.70457 2.54823 8.95602C2.69443 9.20747 2.77227 9.4928 2.77403 9.78366V10.2087C2.77519 10.5023 2.69873 10.7911 2.55239 11.0457C2.40606 11.3004 2.19503 11.5118 1.94069 11.6587L1.81569 11.7337C1.43364 11.955 1.155 12.3188 1.04095 12.7453C0.926895 13.1719 0.986744 13.6262 1.20736 14.0087L1.39069 14.3253C1.61198 14.7074 1.97583 14.986 2.40236 15.1001C2.82889 15.2141 3.28325 15.1543 3.66569 14.9337L3.79069 14.867C4.04406 14.7207 4.33146 14.6437 4.62402 14.6437C4.91659 14.6437 5.20399 14.7207 5.45736 14.867L5.81569 15.0753C6.06881 15.2215 6.27904 15.4316 6.42531 15.6846C6.57157 15.9377 6.64872 16.2247 6.64902 16.517V16.667C6.64902 17.109 6.82462 17.5329 7.13718 17.8455C7.44974 18.1581 7.87366 18.3337 8.31569 18.3337H8.68236C9.12439 18.3337 9.54831 18.1581 9.86087 17.8455C10.1734 17.5329 10.349 17.109 10.349 16.667V16.517C10.3493 16.2247 10.4265 15.9377 10.5727 15.6846C10.719 15.4316 10.9292 15.2215 11.1824 15.0753L11.5407 14.867C11.7941 14.7207 12.0815 14.6437 12.374 14.6437C12.6666 14.6437 12.954 14.7207 13.2074 14.867L13.3324 14.9337C13.7148 15.1543 14.1692 15.2141 14.5957 15.1001C15.0222 14.986 15.3861 14.7074 15.6074 14.3253L15.7907 14.0003C16.0113 13.6179 16.0712 13.1635 15.9571 12.737C15.843 12.3105 15.5644 11.9466 15.1824 11.7253L15.0574 11.6587C14.803 11.5118 14.592 11.3004 14.4457 11.0457C14.2993 10.7911 14.2229 10.5023 14.224 10.2087V9.79199C14.2229 9.49831 14.2993 9.20953 14.4457 8.9549C14.592 8.70027 14.803 8.48883 15.0574 8.34199L15.1824 8.26699C15.5644 8.0457 15.843 7.68185 15.9571 7.25532C16.0712 6.82879 16.0113 6.37444 15.7907 5.99199L15.6074 5.67533C15.3861 5.29327 15.0222 5.01464 14.5957 4.90058C14.1692 4.78653 13.7148 4.84638 13.3324 5.06699L13.2074 5.13366C12.954 5.27994 12.6666 5.35695 12.374 5.35695C12.0815 5.35695 11.7941 5.27994 11.5407 5.13366L11.1824 4.92533C10.9292 4.77919 10.719 4.56906 10.5727 4.31602C10.4265 4.06298 10.3493 3.77593 10.349 3.48366V3.33366C10.349 2.89163 10.1734 2.46771 9.86087 2.15515C9.54831 1.84259 9.12439 1.66699 8.68236 1.66699Z" stroke="#71717A" stroke-width="1.66667" stroke-linecap="round" stroke-linejoin="round"/>
<path d="M8.49902 12.5003C9.87974 12.5003 10.999 11.381 10.999 10.0003C10.999 8.61961 9.87974 7.50033 8.49902 7.50033C7.11831 7.50033 5.99902 8.61961 5.99902 10.0003C5.99902 11.381 7.11831 12.5003 8.49902 12.5003Z" stroke="#71717A" stroke-width="1.66667" stroke-linecap="round" stroke-linejoin="round"/>
</svg>
