<svg width="15" height="14" viewBox="0 0 15 14" fill="none" xmlns="http://www.w3.org/2000/svg">
<path d="M1.5 5.00003H13.5M1.5 5.00003V11.6667C1.5 12.0203 1.64048 12.3595 1.89052 12.6095C2.14057 12.8596 2.47971 13 2.83333 13H12.1667C12.5203 13 12.8594 12.8596 13.1095 12.6095C13.3595 12.3595 13.5 12.0203 13.5 11.6667V5.00003M1.5 5.00003L3.13333 1.73337C3.24464 1.51247 3.41521 1.32689 3.62595 1.19738C3.8367 1.06788 4.07931 0.999545 4.32667 1.00003H10.6733C10.9218 0.998303 11.1658 1.06605 11.3779 1.19562C11.5899 1.3252 11.7615 1.51145 11.8733 1.73337L13.5 5.00003M7.5 1.00003V5.00003" stroke="#FAFAFA" stroke-width="1.33333" stroke-linecap="round" stroke-linejoin="round"/>
</svg>
