<svg width="17" height="20" viewBox="0 0 17 20" fill="none" xmlns="http://www.w3.org/2000/svg">
<path d="M4.75 3.55744L12.25 7.8491M1.25 5.83244L8.5 9.9991M8.5 9.9991L15.75 5.83244M8.5 9.9991L8.5 18.3324M16 6.66577C15.9997 6.3735 15.9225 6.08645 15.7763 5.83341C15.63 5.58037 15.4198 5.37024 15.1667 5.2241L9.33333 1.89077C9.07997 1.74449 8.79256 1.66748 8.5 1.66748C8.20744 1.66748 7.92003 1.74449 7.66667 1.89077L1.83333 5.2241C1.58022 5.37024 1.36998 5.58037 1.22372 5.83341C1.07745 6.08645 1.0003 6.3735 1 6.66577V13.3324C1.0003 13.6247 1.07745 13.9118 1.22372 14.1648C1.36998 14.4178 1.58022 14.628 1.83333 14.7741L7.66667 18.1074C7.92003 18.2537 8.20744 18.3307 8.5 18.3307C8.79256 18.3307 9.07997 18.2537 9.33333 18.1074L15.1667 14.7741C15.4198 14.628 15.63 14.4178 15.7763 14.1648C15.9225 13.9118 15.9997 13.6247 16 13.3324V6.66577Z" stroke="black" stroke-opacity="0.6" stroke-width="1.66667" stroke-linecap="round" stroke-linejoin="round"/>
</svg>
