<svg width="19" height="20" viewBox="0 0 19 20" fill="none" xmlns="http://www.w3.org/2000/svg">
<path d="M1.14844 1.6875H2.8151L5.03177 12.0375C5.11309 12.4165 5.324 12.7554 5.6282 12.9957C5.9324 13.236 6.31086 13.3628 6.69844 13.3542H14.8484C15.2277 13.3536 15.5955 13.2236 15.891 12.9857C16.1864 12.7478 16.3919 12.4163 16.4734 12.0458L17.8484 5.85417H3.70677M6.9401 17.4792C6.9401 17.9394 6.56701 18.3125 6.10677 18.3125C5.64653 18.3125 5.27344 17.9394 5.27344 17.4792C5.27344 17.0189 5.64653 16.6458 6.10677 16.6458C6.56701 16.6458 6.9401 17.0189 6.9401 17.4792ZM16.1068 17.4792C16.1068 17.9394 15.7337 18.3125 15.2734 18.3125C14.8132 18.3125 14.4401 17.9394 14.4401 17.4792C14.4401 17.0189 14.8132 16.6458 15.2734 16.6458C15.7337 16.6458 16.1068 17.0189 16.1068 17.4792Z" stroke="black" stroke-opacity="0.6" stroke-width="1.66667" stroke-linecap="round" stroke-linejoin="round"/>
</svg>
